<?xml version="1.0" standalone="no"?>
<svg width="567" height="384" viewBox="0 0 567 384" xmlns="http://www.w3.org/2000/svg">
<title>
sync-zoom-to-start.svg
</title>
<desc>
Creator: ROOT Version 5.34/14
CreationDate: Sat Jan 10 10:42:56 2015</desc>
<defs>
</defs>
<rect x="0" y="0" width="567" height="384" fill="white"/>
<rect x="57" y="38" width="453" height="308" fill="white"/>
<rect x="57" y="38" width="453" height="308" fill="none" stroke="black"/>
<rect x="57" y="38" width="453" height="308" fill="white"/>
<rect x="57" y="38" width="453" height="308" fill="none" stroke="black"/>
<path d="M57,346h 453" fill="none" stroke="black"/>
<path d="M57,38v 308" fill="none" stroke="#c0b6ac" stroke-dasharray=" 1, 2"/>
<path d="M147,38v 308" fill="none" stroke="#c0b6ac" stroke-dasharray=" 1, 2"/>
<path d="M237,38v 308" fill="none" stroke="#c0b6ac" stroke-dasharray=" 1, 2"/>
<path d="M328,38v 308" fill="none" stroke="#c0b6ac" stroke-dasharray=" 1, 2"/>
<path d="M418,38v 308" fill="none" stroke="#c0b6ac" stroke-dasharray=" 1, 2"/>
<path d="M508,38v 308" fill="none" stroke="#c0b6ac" stroke-dasharray=" 1, 2"/>
<path d="M508,38v 308" fill="none" stroke="#c0b6ac" stroke-dasharray=" 1, 2"/>
<path d="M57,346v -308" fill="none" stroke="black"/>
<path d="M510,330h -453" fill="none" stroke="#c0b6ac" stroke-dasharray=" 1, 2"/>
<path d="M510,292h -453" fill="none" stroke="#c0b6ac" stroke-dasharray=" 1, 2"/>
<path d="M510,253h -453" fill="none" stroke="#c0b6ac" stroke-dasharray=" 1, 2"/>
<path d="M510,215h -453" fill="none" stroke="#c0b6ac" stroke-dasharray=" 1, 2"/>
<path d="M510,176h -453" fill="none" stroke="#c0b6ac" stroke-dasharray=" 1, 2"/>
<path d="M510,138h -453" fill="none" stroke="#c0b6ac" stroke-dasharray=" 1, 2"/>
<path d="M510,99h -453" fill="none" stroke="#c0b6ac" stroke-dasharray=" 1, 2"/>
<path d="M510,61h -453" fill="none" stroke="#c0b6ac" stroke-dasharray=" 1, 2"/>
<path d="M510,330h -453" fill="none" stroke="#c0b6ac" stroke-dasharray=" 1, 2"/>
<path d="M510,61h -453" fill="none" stroke="#c0b6ac" stroke-dasharray=" 1, 2"/>
<path d="M57,346h 453" fill="none" stroke="black"/>
<text x="465" y="372" fill="black" font-size="12" font-family="Helvetica">
seconds
</text>
<path d="M57,336v 10" fill="none" stroke="black"/>
<path d="M75,341v 5" fill="none" stroke="black"/>
<path d="M93,341v 5" fill="none" stroke="black"/>
<path d="M111,341v 5" fill="none" stroke="black"/>
<path d="M129,341v 5" fill="none" stroke="black"/>
<path d="M147,336v 10" fill="none" stroke="black"/>
<path d="M165,341v 5" fill="none" stroke="black"/>
<path d="M183,341v 5" fill="none" stroke="black"/>
<path d="M201,341v 5" fill="none" stroke="black"/>
<path d="M219,341v 5" fill="none" stroke="black"/>
<path d="M237,336v 10" fill="none" stroke="black"/>
<path d="M255,341v 5" fill="none" stroke="black"/>
<path d="M274,341v 5" fill="none" stroke="black"/>
<path d="M292,341v 5" fill="none" stroke="black"/>
<path d="M310,341v 5" fill="none" stroke="black"/>
<path d="M328,336v 10" fill="none" stroke="black"/>
<path d="M346,341v 5" fill="none" stroke="black"/>
<path d="M364,341v 5" fill="none" stroke="black"/>
<path d="M382,341v 5" fill="none" stroke="black"/>
<path d="M400,341v 5" fill="none" stroke="black"/>
<path d="M418,336v 10" fill="none" stroke="black"/>
<path d="M436,341v 5" fill="none" stroke="black"/>
<path d="M454,341v 5" fill="none" stroke="black"/>
<path d="M472,341v 5" fill="none" stroke="black"/>
<path d="M490,341v 5" fill="none" stroke="black"/>
<path d="M508,336v 10" fill="none" stroke="black"/>
<path d="M508,336v 10" fill="none" stroke="black"/>
<text x="53" y="358" fill="black" font-size="12" font-family="Helvetica">
0
</text>
<text x="133" y="358" fill="black" font-size="12" font-family="Helvetica">
1000
</text>
<text x="223" y="358" fill="black" font-size="12" font-family="Helvetica">
2000
</text>
<text x="314" y="358" fill="black" font-size="12" font-family="Helvetica">
3000
</text>
<text x="404" y="358" fill="black" font-size="12" font-family="Helvetica">
4000
</text>
<text x="494" y="358" fill="black" font-size="12" font-family="Helvetica">
5000
</text>
<path d="M57,346v -308" fill="none" stroke="black"/>
<g transform="rotate(-90,29,194)">
<text x="29" y="194" fill="black" font-size="12" font-family="Helvetica">
milliseconds relative to server
</text>
</g>
<path d="M70,330h -13" fill="none" stroke="black"/>
<path d="M63,322h -6" fill="none" stroke="black"/>
<path d="M63,315h -6" fill="none" stroke="black"/>
<path d="M63,307h -6" fill="none" stroke="black"/>
<path d="M63,299h -6" fill="none" stroke="black"/>
<path d="M70,292h -13" fill="none" stroke="black"/>
<path d="M63,284h -6" fill="none" stroke="black"/>
<path d="M63,276h -6" fill="none" stroke="black"/>
<path d="M63,269h -6" fill="none" stroke="black"/>
<path d="M63,261h -6" fill="none" stroke="black"/>
<path d="M70,253h -13" fill="none" stroke="black"/>
<path d="M63,246h -6" fill="none" stroke="black"/>
<path d="M63,238h -6" fill="none" stroke="black"/>
<path d="M63,230h -6" fill="none" stroke="black"/>
<path d="M63,223h -6" fill="none" stroke="black"/>
<path d="M70,215h -13" fill="none" stroke="black"/>
<path d="M63,207h -6" fill="none" stroke="black"/>
<path d="M63,199h -6" fill="none" stroke="black"/>
<path d="M63,192h -6" fill="none" stroke="black"/>
<path d="M63,184h -6" fill="none" stroke="black"/>
<path d="M70,176h -13" fill="none" stroke="black"/>
<path d="M63,169h -6" fill="none" stroke="black"/>
<path d="M63,161h -6" fill="none" stroke="black"/>
<path d="M63,153h -6" fill="none" stroke="black"/>
<path d="M63,146h -6" fill="none" stroke="black"/>
<path d="M70,138h -13" fill="none" stroke="black"/>
<path d="M63,130h -6" fill="none" stroke="black"/>
<path d="M63,123h -6" fill="none" stroke="black"/>
<path d="M63,115h -6" fill="none" stroke="black"/>
<path d="M63,107h -6" fill="none" stroke="black"/>
<path d="M70,99h -13" fill="none" stroke="black"/>
<path d="M63,92h -6" fill="none" stroke="black"/>
<path d="M63,84h -6" fill="none" stroke="black"/>
<path d="M63,76h -6" fill="none" stroke="black"/>
<path d="M63,69h -6" fill="none" stroke="black"/>
<path d="M70,61h -13" fill="none" stroke="black"/>
<path d="M70,330h -13" fill="none" stroke="black"/>
<path d="M63,338h -6" fill="none" stroke="black"/>
<path d="M63,346h -6" fill="none" stroke="black"/>
<path d="M70,61h -13" fill="none" stroke="black"/>
<path d="M63,53h -6" fill="none" stroke="black"/>
<path d="M63,46h -6" fill="none" stroke="black"/>
<path d="M63,38h -6" fill="none" stroke="black"/>
<text x="36" y="334" fill="black" font-size="12" font-family="Helvetica">
-30
</text>
<text x="36" y="296" fill="black" font-size="12" font-family="Helvetica">
-25
</text>
<text x="36" y="258" fill="black" font-size="12" font-family="Helvetica">
-20
</text>
<text x="36" y="219" fill="black" font-size="12" font-family="Helvetica">
-15
</text>
<text x="36" y="181" fill="black" font-size="12" font-family="Helvetica">
-10
</text>
<text x="43" y="142" fill="black" font-size="12" font-family="Helvetica">
-5
</text>
<text x="47" y="104" fill="black" font-size="12" font-family="Helvetica">
0
</text>
<text x="47" y="66" fill="black" font-size="12" font-family="Helvetica">
5
</text>
<text x="99" y="18" fill="black" font-size="18" font-family="Helvetica">
Sync time for rpi/bbb w.r.t. media server clock
</text>
<path d="M57,76h 3v -7v 7v -7v 7l 1, -7v 7v -7v 7v -7l 1, 7v 39h 1v 8h 1l 1, 7v -7v 7v -7v 7v -7h 1v 7v -7v 7v -7v 7v -7l 1, 7v -7v 7v -7v 7v -7v 7v -7l 1, 7v -7v 7v -7h 1v 7v -7v 7v -7v 7v -7l 1, 7v -7v 7v -7v 7v -7v 7v -7l 1, 7v -7v 7v -7v 7v -7h
 1v 7v -7v 7v -7h 1v 7v -7v 7v -7v 7h 1v -7v 7v -7v 7v -7l 1, 7v -7v 7v -7l 1, 7v -7v 7l 1, -7v 7v -7v 7h 3v -7v 7v -7v 7h 9v -7v 7h 2v -7v 7h 1v -7v 7v -7l 1, 7v -7v 7v -7v 7l 1, -7v 7v -7v 7h 1v -7v 7v -7v 7v -7v 7l 1, -7v 7v -7v 7v -7h 1v 7v -7v
 7v -7h 1v 7v -7v 7v -7h 1v 7v -7l 1, 7v -7v 7v -7h 1v 7v -7v 7v -7l 1, 7v -7v 7v -7v 7v -7h 1v 7v -7v 7v -7v 7l 1, -7v 7v -7l 1, 7v -7v 7v -7v 7v -7h 1v 7v -7v 7l 1, -7v 7v -7h 4l 1, -8v 8v -8v 8v -8l 1, 8v -8h 4v -8v 8h 1v -8v 8v -8h 6v -8v 8v -8v
 8l 1, -8v 8v -8v 8v -8l 1, 8v -8v 8v -8v 8v -8v 8l 1, -8v 8v -8l 1, 8v -8h 4v -7h 1v -8h 1v -8h 1v -7l 1, 7v -7h 1v -8v 8l 1, -8v 8v -8v 8v -8h 3v -8v 8v -8h 5v -7v 7v -7v 7h 1v -7v 7v -7v 7l 1, -7v 7v -7v 7v -7v 7v -7l 1, 7v -7v 7v -7v 7v -7h 1v 7v
 -7v 7v -7v 7l 1, -7v 7v -7v 7v -7h 2v 7v -7l 1, 23v 30v -7v 7v -7v 7l 1, -7v 7v -7v 7v -7v 7v -7h 5v -8v 8l 1, -8v 8v -8h 1v 8v -8h 8v -8v 8h 1v -8l 1, 8v -8v 8l 1, -8v 8v -8v 8v -8l 1, 8v -8v 8v -8v 8v -8l 1, 8v -8v 8v -8v 8v -8l 1, 8v -8v 8v -8v
 8v -8h 1v 8v -8v 8h 1v 8v -8v 8h 1v 7v -7v 7h 1v 8h 3v 8v -8v 8l 1, -8v 8v -8v 8v -8v 8v -8l 1, 8v -8v 8v -8v 8h 5v 8v -8v 8v -8h 1v 8v -8v 8v -8v 8h 5v 7v -7h 1v 7v -7v 7l 1, -7v 7v -7v 7v -7v 7v -7v 7h 1v -7v 7h 4v -7v 7v -7v 7l 1, -7v 7v -7v 7v
 -7l 1, 7v -7h 7v -8v 8v -8v 8h 1v -8v 8h 5v 7v -7h 1v 7v -7h 1v 7v -7v 7v -7v 7v -7l 1, 7v -7v 7v -7v 7h 6v -7v 7v -7l 1, 7v -7v 7l 1, -7v 7v -7v 7v -7l 1, 7v -7v 7v -7v 7l 1, -7v 7v -7v 7v -7v 7v -7l 1, 7v -7v 7v -7v 7v -7h 1v 7v -7v 7v -7v 7v -7h
 1v 7v -7v 7v -7v 7v -7h 2l 1, 7v -7h 9v 7v -7h 1v 7v -7l 1, 7v -7h 5v -8l 1, 8v -8v 8v -8l 1, 8v -8v 8v -8v 8v -8l 1, 8v -8v 8v -8h 6v -8v 8v -8v 8h 1v -8v 8v -8v 8v -8l 1, 8v -8v 8v -8h 1v 8v -8v 8v -8l 1, 8v -8v 8v -8v 8v -8h 1v 8v -8v 8v -8l 1,
 8v -8v 8v -8l 1, 8v -8v 8v -8v 8h 1v -8v 8v -8v 8v -8v 8v -8l 1, 8v -8v 8v -8v 8v -8l 1, 8v -8v 8v -8v 8h 1v -8v 8v -8v 8v -8l 1, 8v -8v 8v -8v 8v -8v 8h 1v -8v 8v -8v 8v -8l 1, 8v -8v 8v -8v 8h 1v -8v 8v -8l 1, 8v -8v 8v -8l 1, 8v -8v 8v -8l 1, 8v
 -8v 8v -8v 8h 2l 1, -8v 8v -8v 8h 1v -8v 8h 13v -8v 8h 1v -8v 8h 1v -8l 1, 8v -8v 8v -8l 1, 8v -8v 8h 2v -8v 8v -8v 8v -8l 1, 8v -8v 8v -8h 1v 8v -8v 8v -8v 8h 1v -8v 8v -8v 8v -8v 8v -8h 1v 8v -8v 8v -8v 8v -8l 1, 8v -8v 8v -8h 1v 8v -8v 8v -8v 8l
 1, -8v 8l 1, -8l 1, 8v -8h 15v 8v -8v 8v -8h 1v 8v -8h 8v 8v -8h 1v 8v -8v 8l 1, -8h 12v -8l 1, 8v -8h 1v 8v -8v 8v -8v 8v -8l 1, 8v -8v 8v -8v 8v -8v 8v -8l 1, 8v -8v 8v -8v 8l 1, -8v 8v -8l 1, 8v -8v 8v -8h 1v 8v -8v 8v -8l 1, 8v -8v 8l 1, -8v 8v
 -8h 1v 8v -8v 8l 1, -8v 8v -8l 1, 8v -8v 8v -8v 8v -8v 8l 1, -8v 8v -8v 8v -8v 8v -8l 1, 8v -8v 8v -8v 8v -8l 1, 8v -8v 8v -8v 8v -8v 8v -8l 1, 8v -8v 8v -8v 8v -8v 8l 1, -8v 8v -8h 1v 8v -8v 8v -8v 8v -8l 1, 8v -8v 8v -8v 8v -8v 8l 1, -8h 1v 8v -8v
 8v -8v 8l 1, -8v 8v -8l 1, 8v -8v 8v -8h 1v 8v -8v 8v -8v 8v -8h 1v 8v -8v 8v -8v 8l 1, -8v 8v -8v 8l 1, -8v 8l 1, -8v 8v -8v 8v -8l 1, 8v -8v 8v -8h 1v 8v -8v 8v -8h 1v 8v -8l 1, 8v -8v 8v -8v 8v -8l 1, 8v -8h 1v 8v -8v 8v -8h 1v 8v -8h 1v 8v -8l
 1, 8v -8h 2l 1, -7v 7v -7v 7v -7v 7l 1, -7h 32v -8v 8h 3v -8v 8v -8v 8v -8l 1, 8l 1, -8v 8v -8v 8l 1, -8v 8v -8v 8v -8l 1, 8v -8v 8v -8v 8v -8l 1, 8v -8v 8v -8v 8v -8v 8v -8h 1v 8v -8v 8v -8l 1, 8v -8v 8v -8v 8v -8h 1v 8v -8v 8v -8l 1, 8v -8v 8v -8v
 8v -8l 1, 8v -8v 8v -8v 8h 7v 7l 1, -7v 7v -7v 7v -7v 7v -7v 7l 1, -7v 7v -7v 7v -7v 7l 1, -7v 7v -7v 7v -7l 1, 7h 1v -7v 7h 2v -7v 7v -7v 7v -7v 7v -7l 1, 7v -7v 7v -7l 1, 7v -7v 7v -7v 7v -7v 7h 1v -7v 7v -7l 1, 7v -7v 7v -7v 7v -7l 1, 7v -7v 7v
 -7v 7v -7l 1, 7v -7v 7v -7v 7v -7v 7v -7l 1, 7v -7v 7v -7v 7v -7l 1, 7v -7v 7v -7v 7v -7l 1, 7v -7v 7v -7v 7v -7v 7h 8v 8v -8h 2v 8v -8h 41" fill="none" stroke="#ff0000"/>
<path d="M57,230v -7v 7h 4l 1, 8v 31h 1v 15h 3v 8v -8h 1v 8v -8v 8h 5v 7h 1v -7v 7h 5v 8h 6v 8v -8l 1, 8h 4v -8v 8h 3v 7h 8v 8h 8v 8v -8l 1, 8v -8v 8v -8v 8v -8h 1v 8v -8h 18v 8v -8h 1v 8v -8h 1v 8v -8v 8v -8l 1, 8v -8v 8h 1v -8h 1v -8h 1l 1, -7h 1v
 -8v 8v -8v 8l 1, -8h 3l 1, -8v 8v -8v 8l 1, -8v 8v -8h 2v 8l 1, -8h 1l 1, 8v -8v 8v -8v 8h 3v -84l 1, -124v 8h 1v -8v 8h 17l 1, 8v -8v 8v -8v 8h 1v -8v 8h 4v -8v 8v -8v 8v -8h 4v 8l 1, -8v 8v -8v 8h 6v 8v -8h 1v 8h 5l 1, 7v -7v 7v -7v 7h 1v -7v 7h
 3v -7l 1, 7h 2v -7h 5v -8h 5v 8v -8h 1v 8v -8v 8h 10v 7v -7h 3v -8h 4v -8v 8v -8h 23v -8v 8h 14v -8v 8h 2v -8h 1v 8v -8v 8h 1v -8v 8h 2v -8h 1v 8h 1l 1, -8v 8h 1v -8h 1v 8v -8l 1, 8v -8h 1v 8v -8v 8h 3v -8v 8h 3v -8l 1, 8h 5v -8v 8h 5v -8h 1v 8h 2v
 -8v 8h 8v -8v 8h 38v -8v 8h 7v -8h 1v 8h 2v -8l 1, 8h 2v -8v 8v -8v 8h 1v -8v 8h 1v -8l 1, 8v -8v 8v -8h 1v 8v -8h 1v 8v -8l 1, 8v -8v 8h 1v -8v 8h 1v -8v 8h 1v -8v 8v -8v 8h 1v -8h 2v 8v -8v 8h 1v -8h 2l 1, 8v -8v 8v -8h 2v 8v -8l 1, 8v -8v 8h 1v
 -8v 8v -8v 8h 1v -8v 8v -8v 8v -8h 1v 8v -8h 1v 8v -8v 8v -8l 1, 8v -8v 8v -8l 1, 8v -8v 8v -8v 8v -8v 8h 1v -8h 1v 8v -8h 11v -7h 2v 7v -7v 7v -7h 1v 7v -7v 7l 1, -7v 7v -7v 7h 1v -7v 7l 1, -7v 7v -7v 7h 1v -7v 7v -7v 7l 1, -7v 7v -7h 1v 7v -7v 7h
 1v -7h 1v 7v -7l 1, 7v -7v 7v -7v 7h 1v -7v 7v -7h 1v 7v -7l 1, 7v -7v 7l 1, -7v 7v -7v 7l 1, -7v 7v -7v 7v -7h 1v 7v -7v 7v -7h 1v 7v -7v 7v -7h 25v -8v 8h 19v 7l 1, -7v 7h 1v -7v 7h 7v 8v -8v 8v -8v 8l 1, -8v 8l 1, -8v 8v -8h 1v 8v -8h 1v 8v -8v
 8v -8h 2v 8v -8h 1v 8v -8v 8v -8h 1v 8v -8v 8v -8h 1v 8v -8h 2v 8v -8h 2v 8v -8v 8l 1, -8v 8v -8v 8l 1, -8v 8v -8v 8h 1v -8v 8v -8v 8l 1, -8v 8l 1, -8v 8v -8v 8h 2v -8v 8v -8v 8h 5v -8v 8h 18" fill="none" stroke="black"/>
<path d="M57,76h 3v -7v 7v -7v 7l 1, -7v 7v -7v 7v -7l 1, 7v 39h 1v 8h 1l 1, 7v -7v 7v -7v 7v -7h 1v 7v -7v 7v -7v 7v -7l 1, 7v -7v 7v -7v 7v -7v 7v -7l 1, 7v -7v 7v -7h 1v 7v -7v 7v -7v 7v -7l 1, 7v -7v 7v -7v 7v -7v 7v -7l 1, 7v -7v 7v -7v 7v -7h
 1v 7v -7v 7v -7h 1v 7v -7v 7v -7v 7h 1v -7v 7v -7v 7v -7l 1, 7v -7v 7v -7l 1, 7v -7v 7l 1, -7v 7v -7v 7h 3v -7v 7v -7v 7h 9v -7v 7h 2v -7v 7h 1v -7v 7v -7l 1, 7v -7v 7v -7v 7l 1, -7v 7v -7v 7h 1v -7v 7v -7v 7v -7v 7l 1, -7v 7v -7v 7v -7h 1v 7v -7v
 7v -7h 1v 7v -7v 7v -7h 1v 7v -7l 1, 7v -7v 7v -7h 1v 7v -7v 7v -7l 1, 7v -7v 7v -7v 7v -7h 1v 7v -7v 7v -7v 7l 1, -7v 7v -7l 1, 7v -7v 7v -7v 7v -7h 1v 7v -7v 7l 1, -7v 7v -7h 4l 1, -8v 8v -8v 8v -8l 1, 8v -8h 4v -8v 8h 1v -8v 8v -8h 6v -8v 8v -8v
 8l 1, -8v 8v -8v 8v -8l 1, 8v -8v 8v -8v 8v -8v 8l 1, -8v 8v -8l 1, 8v -8h 4v -7h 1v -8h 1v -8h 1v -7l 1, 7v -7h 1v -8v 8l 1, -8v 8v -8v 8v -8h 3v -8v 8v -8h 5v -7v 7v -7v 7h 1v -7v 7v -7v 7l 1, -7v 7v -7v 7v -7v 7v -7l 1, 7v -7v 7v -7v 7v -7h 1v 7v
 -7v 7v -7v 7l 1, -7v 7v -7v 7v -7h 2v 7v -7l 1, 23v 30v -7v 7v -7v 7l 1, -7v 7v -7v 7v -7v 7v -7h 5v -8v 8l 1, -8v 8v -8h 1v 8v -8h 8v -8v 8h 1v -8l 1, 8v -8v 8l 1, -8v 8v -8v 8v -8l 1, 8v -8v 8v -8v 8v -8l 1, 8v -8v 8v -8v 8v -8l 1, 8v -8v 8v -8v
 8v -8h 1v 8v -8v 8h 1v 8v -8v 8h 1v 7v -7v 7h 1v 8h 3v 8v -8v 8l 1, -8v 8v -8v 8v -8v 8v -8l 1, 8v -8v 8v -8v 8h 5v 8v -8v 8v -8h 1v 8v -8v 8v -8v 8h 5v 7v -7h 1v 7v -7v 7l 1, -7v 7v -7v 7v -7v 7v -7v 7h 1v -7v 7h 4v -7v 7v -7v 7l 1, -7v 7v -7v 7v
 -7l 1, 7v -7h 7v -8v 8v -8v 8h 1v -8v 8h 5v 7v -7h 1v 7v -7h 1v 7v -7v 7v -7v 7v -7l 1, 7v -7v 7v -7v 7h 6v -7v 7v -7l 1, 7v -7v 7l 1, -7v 7v -7v 7v -7l 1, 7v -7v 7v -7v 7l 1, -7v 7v -7v 7v -7v 7v -7l 1, 7v -7v 7v -7v 7v -7h 1v 7v -7v 7v -7v 7v -7h
 1v 7v -7v 7v -7v 7v -7h 2l 1, 7v -7h 9v 7v -7h 1v 7v -7l 1, 7v -7h 5v -8l 1, 8v -8v 8v -8l 1, 8v -8v 8v -8v 8v -8l 1, 8v -8v 8v -8h 6v -8v 8v -8v 8h 1v -8v 8v -8v 8v -8l 1, 8v -8v 8v -8h 1v 8v -8v 8v -8l 1, 8v -8v 8v -8v 8v -8h 1v 8v -8v 8v -8l 1,
 8v -8v 8v -8l 1, 8v -8v 8v -8v 8h 1v -8v 8v -8v 8v -8v 8v -8l 1, 8v -8v 8v -8v 8v -8l 1, 8v -8v 8v -8v 8h 1v -8v 8v -8v 8v -8l 1, 8v -8v 8v -8v 8v -8v 8h 1v -8v 8v -8v 8v -8l 1, 8v -8v 8v -8v 8h 1v -8v 8v -8l 1, 8v -8v 8v -8l 1, 8v -8v 8v -8l 1, 8v
 -8v 8v -8v 8h 2l 1, -8v 8v -8v 8h 1v -8v 8h 13v -8v 8h 1v -8v 8h 1v -8l 1, 8v -8v 8v -8l 1, 8v -8v 8h 2v -8v 8v -8v 8v -8l 1, 8v -8v 8v -8h 1v 8v -8v 8v -8v 8h 1v -8v 8v -8v 8v -8v 8v -8h 1v 8v -8v 8v -8v 8v -8l 1, 8v -8v 8v -8h 1v 8v -8v 8v -8v 8l
 1, -8v 8l 1, -8l 1, 8v -8h 15v 8v -8v 8v -8h 1v 8v -8h 8v 8v -8h 1v 8v -8v 8l 1, -8h 12v -8l 1, 8v -8h 1v 8v -8v 8v -8v 8v -8l 1, 8v -8v 8v -8v 8v -8v 8v -8l 1, 8v -8v 8v -8v 8l 1, -8v 8v -8l 1, 8v -8v 8v -8h 1v 8v -8v 8v -8l 1, 8v -8v 8l 1, -8v 8v
 -8h 1v 8v -8v 8l 1, -8v 8v -8l 1, 8v -8v 8v -8v 8v -8v 8l 1, -8v 8v -8v 8v -8v 8v -8l 1, 8v -8v 8v -8v 8v -8l 1, 8v -8v 8v -8v 8v -8v 8v -8l 1, 8v -8v 8v -8v 8v -8v 8l 1, -8v 8v -8h 1v 8v -8v 8v -8v 8v -8l 1, 8v -8v 8v -8v 8v -8v 8l 1, -8h 1v 8v -8v
 8v -8v 8l 1, -8v 8v -8l 1, 8v -8v 8v -8h 1v 8v -8v 8v -8v 8v -8h 1v 8v -8v 8v -8v 8l 1, -8v 8v -8v 8l 1, -8v 8l 1, -8v 8v -8v 8v -8l 1, 8v -8v 8v -8h 1v 8v -8v 8v -8h 1v 8v -8l 1, 8v -8v 8v -8v 8v -8l 1, 8v -8h 1v 8v -8v 8v -8h 1v 8v -8h 1v 8v -8l
 1, 8v -8h 2l 1, -7v 7v -7v 7v -7v 7l 1, -7h 32v -8v 8h 3v -8v 8v -8v 8v -8l 1, 8l 1, -8v 8v -8v 8l 1, -8v 8v -8v 8v -8l 1, 8v -8v 8v -8v 8v -8l 1, 8v -8v 8v -8v 8v -8v 8v -8h 1v 8v -8v 8v -8l 1, 8v -8v 8v -8v 8v -8h 1v 8v -8v 8v -8l 1, 8v -8v 8v -8v
 8v -8l 1, 8v -8v 8v -8v 8h 7v 7l 1, -7v 7v -7v 7v -7v 7v -7v 7l 1, -7v 7v -7v 7v -7v 7l 1, -7v 7v -7v 7v -7l 1, 7h 1v -7v 7h 2v -7v 7v -7v 7v -7v 7v -7l 1, 7v -7v 7v -7l 1, 7v -7v 7v -7v 7v -7v 7h 1v -7v 7v -7l 1, 7v -7v 7v -7v 7v -7l 1, 7v -7v 7v
 -7v 7v -7l 1, 7v -7v 7v -7v 7v -7v 7v -7l 1, 7v -7v 7v -7v 7v -7l 1, 7v -7v 7v -7v 7v -7l 1, 7v -7v 7v -7v 7v -7v 7h 8v 8v -8h 2v 8v -8h 41" fill="none" stroke="#ff0000"/>
<path d="M57,230v -7v 7h 4l 1, 8v 31h 1v 15h 3v 8v -8h 1v 8v -8v 8h 5v 7h 1v -7v 7h 5v 8h 6v 8v -8l 1, 8h 4v -8v 8h 3v 7h 8v 8h 8v 8v -8l 1, 8v -8v 8v -8v 8v -8h 1v 8v -8h 18v 8v -8h 1v 8v -8h 1v 8v -8v 8v -8l 1, 8v -8v 8h 1v -8h 1v -8h 1l 1, -7h 1v
 -8v 8v -8v 8l 1, -8h 3l 1, -8v 8v -8v 8l 1, -8v 8v -8h 2v 8l 1, -8h 1l 1, 8v -8v 8v -8v 8h 3v -84l 1, -124v 8h 1v -8v 8h 17l 1, 8v -8v 8v -8v 8h 1v -8v 8h 4v -8v 8v -8v 8v -8h 4v 8l 1, -8v 8v -8v 8h 6v 8v -8h 1v 8h 5l 1, 7v -7v 7v -7v 7h 1v -7v 7h
 3v -7l 1, 7h 2v -7h 5v -8h 5v 8v -8h 1v 8v -8v 8h 10v 7v -7h 3v -8h 4v -8v 8v -8h 23v -8v 8h 14v -8v 8h 2v -8h 1v 8v -8v 8h 1v -8v 8h 2v -8h 1v 8h 1l 1, -8v 8h 1v -8h 1v 8v -8l 1, 8v -8h 1v 8v -8v 8h 3v -8v 8h 3v -8l 1, 8h 5v -8v 8h 5v -8h 1v 8h 2v
 -8v 8h 8v -8v 8h 38v -8v 8h 7v -8h 1v 8h 2v -8l 1, 8h 2v -8v 8v -8v 8h 1v -8v 8h 1v -8l 1, 8v -8v 8v -8h 1v 8v -8h 1v 8v -8l 1, 8v -8v 8h 1v -8v 8h 1v -8v 8h 1v -8v 8v -8v 8h 1v -8h 2v 8v -8v 8h 1v -8h 2l 1, 8v -8v 8v -8h 2v 8v -8l 1, 8v -8v 8h 1v
 -8v 8v -8v 8h 1v -8v 8v -8v 8v -8h 1v 8v -8h 1v 8v -8v 8v -8l 1, 8v -8v 8v -8l 1, 8v -8v 8v -8v 8v -8v 8h 1v -8h 1v 8v -8h 11v -7h 2v 7v -7v 7v -7h 1v 7v -7v 7l 1, -7v 7v -7v 7h 1v -7v 7l 1, -7v 7v -7v 7h 1v -7v 7v -7v 7l 1, -7v 7v -7h 1v 7v -7v 7h
 1v -7h 1v 7v -7l 1, 7v -7v 7v -7v 7h 1v -7v 7v -7h 1v 7v -7l 1, 7v -7v 7l 1, -7v 7v -7v 7l 1, -7v 7v -7v 7v -7h 1v 7v -7v 7v -7h 1v 7v -7v 7v -7h 25v -8v 8h 19v 7l 1, -7v 7h 1v -7v 7h 7v 8v -8v 8v -8v 8l 1, -8v 8l 1, -8v 8v -8h 1v 8v -8h 1v 8v -8v
 8v -8h 2v 8v -8h 1v 8v -8v 8v -8h 1v 8v -8v 8v -8h 1v 8v -8h 2v 8v -8h 2v 8v -8v 8l 1, -8v 8v -8v 8l 1, -8v 8v -8v 8h 1v -8v 8v -8v 8l 1, -8v 8l 1, -8v 8v -8v 8h 2v -8v 8v -8v 8h 5v -8v 8h 18" fill="none" stroke="black"/></svg>
