<?xml version="1.0" encoding="UTF-8" standalone="no"?>
<!DOCTYPE svg PUBLIC "-//W3C//DTD SVG 1.1//EN"
 "http://www.w3.org/Graphics/SVG/1.1/DTD/svg11.dtd">
<!-- Generated by graphviz version 2.36.0 (20140111.2315)
 -->
<!-- Title: Connections Pages: 1 -->
<svg width="638pt" height="906pt"
 viewBox="0.00 0.00 638.00 906.06" xmlns="http://www.w3.org/2000/svg" xmlns:xlink="http://www.w3.org/1999/xlink">
<g id="graph0" class="graph" transform="scale(1 1) rotate(0) translate(4 902.057)">
<title>Connections</title>
<polygon fill="white" stroke="none" points="-4,4 -4,-902.057 634,-902.057 634,4 -4,4"/>
<g id="clust1" class="cluster"><title>cluster_rpi</title>
<polygon fill="none" stroke="black" points="39,-591.057 39,-890.057 622,-890.057 622,-591.057 39,-591.057"/>
</g>
<g id="clust2" class="cluster"><title>cluster_haiku</title>
<polygon fill="none" stroke="black" points="8,-39.0571 8,-487.057 609,-487.057 609,-39.0571 8,-39.0571"/>
</g>
<!-- Rpi -->
<g id="node1" class="node"><title>Rpi</title>
<polygon fill="none" stroke="black" points="47,-667.557 47,-782.557 183,-782.557 183,-667.557 47,-667.557"/>
<text text-anchor="middle" x="83" y="-728.857" font-family="Times,serif" font-size="14.00">Raspberry</text>
<text text-anchor="middle" x="83" y="-713.857" font-family="Times,serif" font-size="14.00">Pi</text>
<polyline fill="none" stroke="black" points="119,-667.557 119,-782.557 "/>
<text text-anchor="middle" x="151" y="-767.357" font-family="Times,serif" font-size="14.00">HDMI</text>
<polyline fill="none" stroke="black" points="119,-759.557 183,-759.557 "/>
<text text-anchor="middle" x="151" y="-744.357" font-family="Times,serif" font-size="14.00">USB2</text>
<polyline fill="none" stroke="black" points="119,-736.557 183,-736.557 "/>
<text text-anchor="middle" x="151" y="-721.357" font-family="Times,serif" font-size="14.00">USB2</text>
<polyline fill="none" stroke="black" points="119,-713.557 183,-713.557 "/>
<text text-anchor="middle" x="151" y="-698.357" font-family="Times,serif" font-size="14.00">USBPW</text>
<polyline fill="none" stroke="black" points="119,-690.557 183,-690.557 "/>
<text text-anchor="middle" x="151" y="-675.357" font-family="Times,serif" font-size="14.00">Network</text>
</g>
<!-- viewsonic -->
<g id="node2" class="node"><title>viewsonic</title>
<polygon fill="none" stroke="black" points="272.5,-790.057 272.5,-882.057 399.5,-882.057 399.5,-790.057 272.5,-790.057"/>
<text text-anchor="middle" x="297.5" y="-866.857" font-family="Times,serif" font-size="14.00">DVI</text>
<polyline fill="none" stroke="black" points="272.5,-859.057 322.5,-859.057 "/>
<text text-anchor="middle" x="297.5" y="-843.857" font-family="Times,serif" font-size="14.00">VGA</text>
<polyline fill="none" stroke="black" points="272.5,-836.057 322.5,-836.057 "/>
<text text-anchor="middle" x="297.5" y="-820.857" font-family="Times,serif" font-size="14.00">Audio</text>
<polyline fill="none" stroke="black" points="272.5,-813.057 322.5,-813.057 "/>
<text text-anchor="middle" x="297.5" y="-797.857" font-family="Times,serif" font-size="14.00">AC</text>
<polyline fill="none" stroke="black" points="322.5,-790.057 322.5,-882.057 "/>
<text text-anchor="middle" x="361" y="-847.357" font-family="Times,serif" font-size="14.00">ViewSonic</text>
<text text-anchor="middle" x="361" y="-832.357" font-family="Times,serif" font-size="14.00">19 inch</text>
<text text-anchor="middle" x="361" y="-817.357" font-family="Times,serif" font-size="14.00">Monitor</text>
</g>
<!-- Rpi&#45;&#45;viewsonic -->
<g id="edge1" class="edge"><title>Rpi:hdmi&#45;&#45;viewsonic:dvi</title>
<path fill="none" stroke="black" d="M184,-771.057C242.91,-771.057 212.09,-871.057 271,-871.057"/>
</g>
<!-- usb2hub -->
<g id="node5" class="node"><title>usb2hub</title>
<polygon fill="none" stroke="black" points="252,-600.057 252,-716.057 420,-716.057 420,-600.057 252,-600.057"/>
<text text-anchor="middle" x="277" y="-693.357" font-family="Times,serif" font-size="14.00">USB2</text>
<polyline fill="none" stroke="black" points="252,-678.057 302,-678.057 "/>
<text text-anchor="middle" x="277" y="-654.857" font-family="Times,serif" font-size="14.00">USB2</text>
<polyline fill="none" stroke="black" points="252,-639.057 302,-639.057 "/>
<text text-anchor="middle" x="277" y="-615.857" font-family="Times,serif" font-size="14.00">USB2</text>
<polyline fill="none" stroke="black" points="302,-600.057 302,-716.057 "/>
<text text-anchor="middle" x="336" y="-700.857" font-family="Times,serif" font-size="14.00">USB2 IN</text>
<polyline fill="none" stroke="black" points="302,-693.057 370,-693.057 "/>
<text text-anchor="middle" x="336" y="-661.857" font-family="Times,serif" font-size="14.00">USB2</text>
<text text-anchor="middle" x="336" y="-646.857" font-family="Times,serif" font-size="14.00">HUB</text>
<polyline fill="none" stroke="black" points="302,-623.057 370,-623.057 "/>
<text text-anchor="middle" x="336" y="-607.857" font-family="Times,serif" font-size="14.00">DC</text>
<polyline fill="none" stroke="black" points="370,-600.057 370,-716.057 "/>
<text text-anchor="middle" x="395" y="-693.357" font-family="Times,serif" font-size="14.00">USB2</text>
<polyline fill="none" stroke="black" points="370,-678.057 420,-678.057 "/>
<text text-anchor="middle" x="395" y="-654.857" font-family="Times,serif" font-size="14.00">USB2</text>
<polyline fill="none" stroke="black" points="370,-639.057 420,-639.057 "/>
<text text-anchor="middle" x="395" y="-615.857" font-family="Times,serif" font-size="14.00">USB2</text>
</g>
<!-- Rpi&#45;&#45;usb2hub -->
<g id="edge3" class="edge"><title>Rpi:usb1&#45;&#45;usb2hub:usbin</title>
<path fill="none" stroke="black" d="M184,-725.057C192.456,-725.057 336,-725.513 336,-717.057"/>
</g>
<!-- Rpi&#45;&#45;usb2hub -->
<g id="edge4" class="edge"><title>Rpi:microusb&#45;&#45;usb2hub:usb0</title>
<path fill="none" stroke="black" d="M184,-702.057C213.861,-702.057 221.139,-697.057 251,-697.057"/>
</g>
<!-- usbwifi -->
<g id="node6" class="node"><title>usbwifi</title>
<polygon fill="none" stroke="black" points="292,-735.057 292,-771.057 380,-771.057 380,-735.057 292,-735.057"/>
<text text-anchor="middle" x="313.5" y="-749.357" font-family="Times,serif" font-size="14.00">USB</text>
<polyline fill="none" stroke="black" points="335,-735.057 335,-771.057 "/>
<text text-anchor="middle" x="357.5" y="-749.357" font-family="Times,serif" font-size="14.00">WiFi</text>
</g>
<!-- Rpi&#45;&#45;usbwifi -->
<g id="edge2" class="edge"><title>Rpi:usb0&#45;&#45;usbwifi:usb</title>
<path fill="none" stroke="black" d="M184,-748.057C231.607,-748.057 243.393,-753.057 291,-753.057"/>
</g>
<!-- mouse -->
<g id="node3" class="node"><title>mouse</title>
<polygon fill="none" stroke="black" points="460.5,-687.057 460.5,-723.057 611.5,-723.057 611.5,-687.057 460.5,-687.057"/>
<text text-anchor="middle" x="485.5" y="-701.357" font-family="Times,serif" font-size="14.00">USB2</text>
<polyline fill="none" stroke="black" points="510.5,-687.057 510.5,-723.057 "/>
<text text-anchor="middle" x="561" y="-701.357" font-family="Times,serif" font-size="14.00">Generic Mouse</text>
</g>
<!-- duckytkl -->
<g id="node4" class="node"><title>duckytkl</title>
<polygon fill="none" stroke="black" points="458.5,-632.057 458.5,-668.057 613.5,-668.057 613.5,-632.057 458.5,-632.057"/>
<text text-anchor="middle" x="483.5" y="-646.357" font-family="Times,serif" font-size="14.00">USB2</text>
<polyline fill="none" stroke="black" points="508.5,-632.057 508.5,-668.057 "/>
<text text-anchor="middle" x="561" y="-646.357" font-family="Times,serif" font-size="14.00">Ducky TKL KB</text>
</g>
<!-- usb2hub&#45;&#45;mouse -->
<g id="edge5" class="edge"><title>usb2hub:usb4&#45;&#45;mouse:usb</title>
<path fill="none" stroke="black" d="M421,-697.057C438.259,-697.057 441.741,-705.057 459,-705.057"/>
</g>
<!-- usb2hub&#45;&#45;duckytkl -->
<g id="edge6" class="edge"><title>usb2hub:usb5&#45;&#45;duckytkl:usb</title>
<path fill="none" stroke="black" d="M421,-659.057C437.924,-659.057 441.076,-650.057 458,-650.057"/>
</g>
<!-- Haiku -->
<g id="node7" class="node"><title>Haiku</title>
<polygon fill="none" stroke="black" points="16,-152.057 16,-382.057 214,-382.057 214,-152.057 16,-152.057"/>
<text text-anchor="middle" x="41" y="-349.857" font-family="Times,serif" font-size="14.00">USB3</text>
<polyline fill="none" stroke="black" points="16,-325.057 66,-325.057 "/>
<text text-anchor="middle" x="41" y="-292.357" font-family="Times,serif" font-size="14.00">USB3</text>
<polyline fill="none" stroke="black" points="16,-267.057 66,-267.057 "/>
<text text-anchor="middle" x="41" y="-234.857" font-family="Times,serif" font-size="14.00">Audio</text>
<polyline fill="none" stroke="black" points="16,-210.057 66,-210.057 "/>
<text text-anchor="middle" x="41" y="-177.357" font-family="Times,serif" font-size="14.00">MIC</text>
<polyline fill="none" stroke="black" points="66,-152.057 66,-382.057 "/>
<text text-anchor="middle" x="108" y="-364.357" font-family="Times,serif" font-size="14.00">AC</text>
<polyline fill="none" stroke="black" points="66,-354.057 150,-354.057 "/>
<text text-anchor="middle" x="108" y="-256.357" font-family="Times,serif" font-size="14.00">HAIKU</text>
<text text-anchor="middle" x="108" y="-241.357" font-family="Times,serif" font-size="14.00">Linux</text>
<text text-anchor="middle" x="108" y="-226.357" font-family="Times,serif" font-size="14.00">Workstation</text>
<polyline fill="none" stroke="black" points="150,-152.057 150,-382.057 "/>
<text text-anchor="middle" x="182" y="-366.857" font-family="Times,serif" font-size="14.00">PS2</text>
<polyline fill="none" stroke="black" points="150,-359.057 214,-359.057 "/>
<text text-anchor="middle" x="182" y="-343.857" font-family="Times,serif" font-size="14.00">USB2</text>
<polyline fill="none" stroke="black" points="150,-336.057 214,-336.057 "/>
<text text-anchor="middle" x="182" y="-320.857" font-family="Times,serif" font-size="14.00">USB2</text>
<polyline fill="none" stroke="black" points="150,-313.057 214,-313.057 "/>
<text text-anchor="middle" x="182" y="-297.857" font-family="Times,serif" font-size="14.00">USB3</text>
<polyline fill="none" stroke="black" points="150,-290.057 214,-290.057 "/>
<text text-anchor="middle" x="182" y="-274.857" font-family="Times,serif" font-size="14.00">USB3</text>
<polyline fill="none" stroke="black" points="150,-267.057 214,-267.057 "/>
<text text-anchor="middle" x="182" y="-251.857" font-family="Times,serif" font-size="14.00">USB3</text>
<polyline fill="none" stroke="black" points="150,-244.057 214,-244.057 "/>
<text text-anchor="middle" x="182" y="-228.857" font-family="Times,serif" font-size="14.00">USB3</text>
<polyline fill="none" stroke="black" points="150,-221.057 214,-221.057 "/>
<text text-anchor="middle" x="182" y="-205.857" font-family="Times,serif" font-size="14.00">Network</text>
<polyline fill="none" stroke="black" points="150,-198.057 214,-198.057 "/>
<text text-anchor="middle" x="182" y="-182.857" font-family="Times,serif" font-size="14.00">HDMI</text>
<polyline fill="none" stroke="black" points="150,-175.057 214,-175.057 "/>
<text text-anchor="middle" x="182" y="-159.857" font-family="Times,serif" font-size="14.00">SPDIF</text>
</g>
<!-- Sony -->
<g id="node8" class="node"><title>Sony</title>
<polygon fill="none" stroke="black" points="250.5,-47.5571 250.5,-162.557 421.5,-162.557 421.5,-47.5571 250.5,-47.5571"/>
<text text-anchor="middle" x="277" y="-144.857" font-family="Times,serif" font-size="14.00">HDMI</text>
<polyline fill="none" stroke="black" points="250.5,-134.557 303.5,-134.557 "/>
<text text-anchor="middle" x="277" y="-116.357" font-family="Times,serif" font-size="14.00">HDMI</text>
<polyline fill="none" stroke="black" points="250.5,-105.557 303.5,-105.557 "/>
<text text-anchor="middle" x="277" y="-87.3571" font-family="Times,serif" font-size="14.00">SPDIF</text>
<polyline fill="none" stroke="black" points="250.5,-76.5571 303.5,-76.5571 "/>
<text text-anchor="middle" x="277" y="-58.3571" font-family="Times,serif" font-size="14.00">AC</text>
<polyline fill="none" stroke="black" points="303.5,-47.5571 303.5,-162.557 "/>
<text text-anchor="middle" x="336" y="-108.857" font-family="Times,serif" font-size="14.00">Sony</text>
<text text-anchor="middle" x="336" y="-93.8571" font-family="Times,serif" font-size="14.00">Receiver</text>
<polyline fill="none" stroke="black" points="368.5,-47.5571 368.5,-162.557 "/>
<text text-anchor="middle" x="395" y="-147.357" font-family="Times,serif" font-size="14.00">HDMI</text>
<polyline fill="none" stroke="black" points="368.5,-139.557 421.5,-139.557 "/>
<text text-anchor="middle" x="395" y="-124.357" font-family="Times,serif" font-size="14.00">L</text>
<polyline fill="none" stroke="black" points="368.5,-116.557 421.5,-116.557 "/>
<text text-anchor="middle" x="395" y="-101.357" font-family="Times,serif" font-size="14.00">C</text>
<polyline fill="none" stroke="black" points="368.5,-93.5571 421.5,-93.5571 "/>
<text text-anchor="middle" x="395" y="-78.3571" font-family="Times,serif" font-size="14.00">R</text>
<polyline fill="none" stroke="black" points="368.5,-70.5571 421.5,-70.5571 "/>
<text text-anchor="middle" x="395" y="-55.3571" font-family="Times,serif" font-size="14.00">SW</text>
</g>
<!-- Haiku&#45;&#45;Sony -->
<g id="edge12" class="edge"><title>Haiku:hdmi&#45;&#45;Sony:hdmi2</title>
<path fill="none" stroke="black" d="M214,-186.057C247.413,-186.057 216.587,-120.057 250,-120.057"/>
</g>
<!-- Haiku&#45;&#45;Sony -->
<g id="edge14" class="edge"><title>Haiku:tos&#45;&#45;Sony:tos</title>
<path fill="none" stroke="black" d="M214,-163.057C249.777,-163.057 214.223,-91.0571 250,-91.0571"/>
</g>
<!-- AOC -->
<g id="node13" class="node"><title>AOC</title>
<polygon fill="none" stroke="black" points="478.5,-264.057 478.5,-356.057 593.5,-356.057 593.5,-264.057 478.5,-264.057"/>
<text text-anchor="middle" x="505" y="-340.857" font-family="Times,serif" font-size="14.00">HDMI</text>
<polyline fill="none" stroke="black" points="478.5,-333.057 531.5,-333.057 "/>
<text text-anchor="middle" x="505" y="-317.857" font-family="Times,serif" font-size="14.00">HDMI</text>
<polyline fill="none" stroke="black" points="478.5,-310.057 531.5,-310.057 "/>
<text text-anchor="middle" x="505" y="-294.857" font-family="Times,serif" font-size="14.00">VGA</text>
<polyline fill="none" stroke="black" points="478.5,-287.057 531.5,-287.057 "/>
<text text-anchor="middle" x="505" y="-271.857" font-family="Times,serif" font-size="14.00">DC</text>
<polyline fill="none" stroke="black" points="531.5,-264.057 531.5,-356.057 "/>
<text text-anchor="middle" x="562.5" y="-321.357" font-family="Times,serif" font-size="14.00">AOC</text>
<text text-anchor="middle" x="562.5" y="-306.357" font-family="Times,serif" font-size="14.00">27 inch</text>
<text text-anchor="middle" x="562.5" y="-291.357" font-family="Times,serif" font-size="14.00">Monitor</text>
</g>
<!-- Haiku&#45;&#45;AOC -->
<g id="edge13" class="edge"><title>Haiku:hdmi&#45;&#45;AOC:hdmi1</title>
<path fill="none" stroke="black" stroke-dasharray="5,2" d="M214,-186.057C260.241,-186.057 384.561,-164.916 422,-192.057 480.504,-234.469 404.74,-345.057 477,-345.057"/>
</g>
<!-- etek -->
<g id="node14" class="node"><title>etek</title>
<polygon fill="none" stroke="black" points="258,-387.057 258,-423.057 414,-423.057 414,-387.057 258,-387.057"/>
<text text-anchor="middle" x="283" y="-401.357" font-family="Times,serif" font-size="14.00">USB2</text>
<polyline fill="none" stroke="black" points="308,-387.057 308,-423.057 "/>
<text text-anchor="middle" x="361" y="-401.357" font-family="Times,serif" font-size="14.00">EtekCity Mouse</text>
</g>
<!-- Haiku&#45;&#45;etek -->
<g id="edge8" class="edge"><title>Haiku:usb20&#45;&#45;etek:usb</title>
<path fill="none" stroke="black" d="M214,-348.057C245.733,-348.057 225.267,-405.057 257,-405.057"/>
</g>
<!-- duckyshine -->
<g id="node15" class="node"><title>duckyshine</title>
<polygon fill="none" stroke="black" points="256,-332.057 256,-368.057 416,-368.057 416,-332.057 256,-332.057"/>
<text text-anchor="middle" x="281" y="-346.357" font-family="Times,serif" font-size="14.00">USB2</text>
<polyline fill="none" stroke="black" points="306,-332.057 306,-368.057 "/>
<text text-anchor="middle" x="361" y="-346.357" font-family="Times,serif" font-size="14.00">Ducky Shine KB</text>
</g>
<!-- Haiku&#45;&#45;duckyshine -->
<g id="edge9" class="edge"><title>Haiku:usb21&#45;&#45;duckyshine:usb</title>
<path fill="none" stroke="black" d="M214,-325.057C235.343,-325.057 233.657,-350.057 255,-350.057"/>
</g>
<!-- omnikey -->
<g id="node16" class="node"><title>omnikey</title>
<polygon fill="none" stroke="black" points="270.5,-442.057 270.5,-478.057 401.5,-478.057 401.5,-442.057 270.5,-442.057"/>
<text text-anchor="middle" x="289.5" y="-456.357" font-family="Times,serif" font-size="14.00">PS2</text>
<polyline fill="none" stroke="black" points="308.5,-442.057 308.5,-478.057 "/>
<text text-anchor="middle" x="355" y="-456.357" font-family="Times,serif" font-size="14.00">OmniKey KB</text>
</g>
<!-- Haiku&#45;&#45;omnikey -->
<g id="edge7" class="edge"><title>Haiku:ps2&#45;&#45;omnikey:ps2</title>
<path fill="none" stroke="black" d="M214,-371.057C245.48,-371.057 224.604,-413.454 250,-432.057 264.351,-442.569 289,-423.268 289,-441.057"/>
</g>
<!-- lacie -->
<g id="node17" class="node"><title>lacie</title>
<polygon fill="none" stroke="black" points="271,-267.057 271,-313.057 401,-313.057 401,-267.057 271,-267.057"/>
<text text-anchor="middle" x="296" y="-297.857" font-family="Times,serif" font-size="14.00">USB2</text>
<polyline fill="none" stroke="black" points="271,-290.057 321,-290.057 "/>
<text text-anchor="middle" x="296" y="-274.857" font-family="Times,serif" font-size="14.00">DC</text>
<polyline fill="none" stroke="black" points="321,-267.057 321,-313.057 "/>
<text text-anchor="middle" x="361" y="-286.357" font-family="Times,serif" font-size="14.00">Lacie HDD</text>
</g>
<!-- Haiku&#45;&#45;lacie -->
<g id="edge10" class="edge"><title>Haiku:usb32&#45;&#45;lacie:usb</title>
<path fill="none" stroke="red" d="M214,-302.057C238.889,-302.057 245.111,-302.057 270,-302.057"/>
</g>
<!-- toshiba -->
<g id="node18" class="node"><title>toshiba</title>
<polygon fill="none" stroke="black" points="264.5,-202.057 264.5,-248.057 407.5,-248.057 407.5,-202.057 264.5,-202.057"/>
<text text-anchor="middle" x="289.5" y="-232.857" font-family="Times,serif" font-size="14.00">USB3</text>
<polyline fill="none" stroke="black" points="264.5,-225.057 314.5,-225.057 "/>
<text text-anchor="middle" x="289.5" y="-209.857" font-family="Times,serif" font-size="14.00">DC</text>
<polyline fill="none" stroke="black" points="314.5,-202.057 314.5,-248.057 "/>
<text text-anchor="middle" x="361" y="-221.357" font-family="Times,serif" font-size="14.00">Toshiba HDD</text>
</g>
<!-- Haiku&#45;&#45;toshiba -->
<g id="edge11" class="edge"><title>Haiku:usb33&#45;&#45;toshiba:usb</title>
<path fill="none" stroke="black" d="M214,-279.057C242.683,-279.057 234.317,-237.057 263,-237.057"/>
</g>
<!-- SpeakerL -->
<g id="node9" class="node"><title>SpeakerL</title>
<ellipse fill="none" stroke="black" cx="536" cy="-227.057" rx="55.7903" ry="18"/>
<text text-anchor="middle" x="536" y="-223.357" font-family="Times,serif" font-size="14.00">Left Speaker</text>
</g>
<!-- Sony&#45;&#45;SpeakerL -->
<g id="edge16" class="edge"><title>Sony:left&#45;&#45;SpeakerL</title>
<path fill="none" stroke="black" d="M422,-128.057C457.777,-128.057 431.155,-176.407 458,-200.057 466.716,-207.736 477.749,-213.266 488.72,-217.235"/>
</g>
<!-- SpeakerR -->
<g id="node10" class="node"><title>SpeakerR</title>
<ellipse fill="none" stroke="black" cx="536" cy="-119.057" rx="61.1893" ry="18"/>
<text text-anchor="middle" x="536" y="-115.357" font-family="Times,serif" font-size="14.00">Right Speaker</text>
</g>
<!-- Sony&#45;&#45;SpeakerR -->
<g id="edge18" class="edge"><title>Sony:right&#45;&#45;SpeakerR</title>
<path fill="none" stroke="black" d="M422,-82.0571C425.896,-82.0571 464.511,-94.93 495.531,-105.49"/>
</g>
<!-- SpeakerC -->
<g id="node11" class="node"><title>SpeakerC</title>
<ellipse fill="none" stroke="black" cx="536" cy="-173.057" rx="64.9885" ry="18"/>
<text text-anchor="middle" x="536" y="-169.357" font-family="Times,serif" font-size="14.00">Center Speaker</text>
</g>
<!-- Sony&#45;&#45;SpeakerC -->
<g id="edge17" class="edge"><title>Sony:center&#45;&#45;SpeakerC</title>
<path fill="none" stroke="black" d="M422,-105.057C446.25,-105.057 437.901,-132.49 458,-146.057 467.041,-152.16 477.609,-157.034 487.968,-160.867"/>
</g>
<!-- Woofer -->
<g id="node12" class="node"><title>Woofer</title>
<ellipse fill="none" stroke="black" stroke-width="2" cx="536" cy="-65.0571" rx="51.9908" ry="18"/>
<text text-anchor="middle" x="536" y="-61.3571" font-family="Times,serif" font-size="14.00">Sub&#45;woofer</text>
</g>
<!-- Sony&#45;&#45;Woofer -->
<g id="edge19" class="edge"><title>Sony:woof&#45;&#45;Woofer</title>
<path fill="none" stroke="black" d="M422,-59.0571C442.628,-59.0571 465.344,-60.0665 484.966,-61.2572"/>
</g>
<!-- Sony&#45;&#45;AOC -->
<g id="edge15" class="edge"><title>Sony:hdmiout&#45;&#45;AOC:hdmi1</title>
<path fill="none" stroke="black" d="M422,-151.057C511.62,-151.057 387.38,-345.057 477,-345.057"/>
</g>
<!-- power -->
<g id="node19" class="node"><title>power</title>
<polygon fill="none" stroke="black" points="69,-504.557 69,-573.557 161,-573.557 161,-504.557 69,-504.557"/>
<text text-anchor="middle" x="80.5" y="-558.357" font-family="Times,serif" font-size="14.00">1</text>
<polyline fill="none" stroke="black" points="92,-550.557 92,-573.557 "/>
<text text-anchor="middle" x="103.5" y="-558.357" font-family="Times,serif" font-size="14.00">2</text>
<polyline fill="none" stroke="black" points="115,-550.557 115,-573.557 "/>
<text text-anchor="middle" x="126.5" y="-558.357" font-family="Times,serif" font-size="14.00">3</text>
<polyline fill="none" stroke="black" points="138,-550.557 138,-573.557 "/>
<text text-anchor="middle" x="149.5" y="-558.357" font-family="Times,serif" font-size="14.00">4</text>
<polyline fill="none" stroke="black" points="69,-550.557 161,-550.557 "/>
<text text-anchor="middle" x="115" y="-535.357" font-family="Times,serif" font-size="14.00">Power</text>
<polyline fill="none" stroke="black" points="69,-527.557 161,-527.557 "/>
<text text-anchor="middle" x="80.5" y="-512.357" font-family="Times,serif" font-size="14.00">5</text>
<polyline fill="none" stroke="black" points="92,-504.557 92,-527.557 "/>
<text text-anchor="middle" x="103.5" y="-512.357" font-family="Times,serif" font-size="14.00">6</text>
<polyline fill="none" stroke="black" points="115,-504.557 115,-527.557 "/>
<text text-anchor="middle" x="126.5" y="-512.357" font-family="Times,serif" font-size="14.00">7</text>
<polyline fill="none" stroke="black" points="138,-504.557 138,-527.557 "/>
<text text-anchor="middle" x="149.5" y="-512.357" font-family="Times,serif" font-size="14.00">8</text>
</g>
<!-- power&#45;&#45;viewsonic -->
<g id="edge21" class="edge"><title>power:2&#45;&#45;viewsonic:ac</title>
<path fill="none" stroke="green" stroke-dasharray="5,2" d="M103,-575.057C103,-599.868 195.797,-570.199 214,-587.057 286.216,-653.935 172.573,-801.057 271,-801.057"/>
</g>
<!-- power&#45;&#45;usb2hub -->
<g id="edge20" class="edge"><title>power:1&#45;&#45;usb2hub:dc</title>
<path fill="none" stroke="green" stroke-dasharray="5,2" d="M80,-575.057C80,-590.006 199.117,-585.659 214,-587.057 215.695,-587.216 336,-597.354 336,-599.057"/>
</g>
<!-- power&#45;&#45;Haiku -->
<g id="edge24" class="edge"><title>power:5&#45;&#45;Haiku:ac</title>
<path fill="none" stroke="green" stroke-dasharray="5,2" d="M108.322,-382.172C108.014,-426.385 108.692,-473.661 110.356,-504.407"/>
</g>
<!-- power&#45;&#45;Sony -->
<g id="edge25" class="edge"><title>power:5&#45;&#45;Sony:ac</title>
<path fill="none" stroke="green" stroke-dasharray="5,2" d="M80,-503.057C80,-473.16 192.919,-512.256 214,-491.057 247.729,-457.139 202.166,-62.0571 250,-62.0571"/>
</g>
<!-- power&#45;&#45;AOC -->
<g id="edge28" class="edge"><title>power:7&#45;&#45;AOC:dc</title>
<path fill="none" stroke="green" stroke-dasharray="5,2" d="M127,-503.057C127,-483.541 200.604,-505.25 214,-491.057 283.315,-417.618 175.819,-106.577 250,-38.0571 306.155,13.812 363.671,11.3546 422,-38.0571 504.507,-107.951 368.867,-275.057 477,-275.057"/>
</g>
<!-- power&#45;&#45;lacie -->
<g id="edge26" class="edge"><title>power:6&#45;&#45;lacie:dc</title>
<path fill="none" stroke="green" stroke-dasharray="5,2" d="M103,-503.057C103,-478.247 195.583,-507.682 214,-491.057 286.659,-425.468 172.116,-278.057 270,-278.057"/>
</g>
<!-- power&#45;&#45;toshiba -->
<g id="edge27" class="edge"><title>power:8&#45;&#45;toshiba:dc</title>
<path fill="none" stroke="green" stroke-dasharray="5,2" d="M150,-503.057C150,-474.117 193.874,-511.853 214,-491.057 257.626,-445.981 200.27,-213.057 263,-213.057"/>
</g>
<!-- network -->
<g id="node20" class="node"><title>network</title>
<polygon fill="none" stroke="black" points="284.5,-497.057 284.5,-581.057 387.5,-581.057 387.5,-497.057 284.5,-497.057"/>
<text text-anchor="middle" x="310" y="-565.857" font-family="Times,serif" font-size="14.00">1</text>
<polyline fill="none" stroke="black" points="335.5,-558.057 335.5,-581.057 "/>
<text text-anchor="middle" x="361.5" y="-565.857" font-family="Times,serif" font-size="14.00">2</text>
<polyline fill="none" stroke="black" points="284.5,-558.057 387.5,-558.057 "/>
<text text-anchor="middle" x="302" y="-535.357" font-family="Times,serif" font-size="14.00">DC</text>
<polyline fill="none" stroke="black" points="319.5,-520.057 319.5,-558.057 "/>
<text text-anchor="middle" x="353.5" y="-542.857" font-family="Times,serif" font-size="14.00">Network</text>
<text text-anchor="middle" x="353.5" y="-527.857" font-family="Times,serif" font-size="14.00">100Mbps</text>
<polyline fill="none" stroke="black" points="284.5,-520.057 387.5,-520.057 "/>
<text text-anchor="middle" x="310" y="-504.857" font-family="Times,serif" font-size="14.00">3</text>
<polyline fill="none" stroke="black" points="335.5,-497.057 335.5,-520.057 "/>
<text text-anchor="middle" x="361.5" y="-504.857" font-family="Times,serif" font-size="14.00">5</text>
</g>
<!-- power&#45;&#45;network -->
<!-- power&#45;&#45;network -->
<g id="edge23" class="edge"><title>power:4&#45;&#45;network:dc</title>
<path fill="none" stroke="green" stroke-dasharray="5,2" d="M162,-562.057C216.741,-562.057 228.259,-539.057 283,-539.057"/>
</g>
<!-- network&#45;&#45;Rpi -->
<g id="edge29" class="edge"><title>network:1&#45;&#45;Rpi:net</title>
<path fill="none" stroke="blue" stroke-dasharray="5,2" d="M283,-570.057C217.556,-570.057 249.444,-679.057 184,-679.057"/>
</g>
<!-- network&#45;&#45;Haiku -->
<g id="edge30" class="edge"><title>network:3&#45;&#45;Haiku:net</title>
<path fill="none" stroke="blue" stroke-dasharray="5,2" d="M283,-508.057C266.502,-508.057 259.465,-504.57 250,-491.057 213.755,-439.313 277.175,-209.057 214,-209.057"/>
</g>
</g>
</svg>
