<?xml version="1.0" standalone="no"?>
<svg width="567.429" height="384.969" viewBox="0 0 567.429 384.969" xmlns="http://www.w3.org/2000/svg">
<title>
output_0_2.svg
</title>
<desc>
Creator: ROOT Version 6.07/02
CreationDate: Sat Jan  2 18:35:43 2016</desc>
<defs>
</defs>
<rect x="0.5" y="0" width="566.929" height="384.469" fill="white"/>
<rect x="57.1929" y="38.4469" width="453.543" height="307.575" fill="white"/>
<rect x="57.1929" y="38.4469" width="453.543" height="307.575" fill="none" stroke="black"/>
<rect x="57.1929" y="38.4469" width="453.543" height="307.575" fill="white"/>
<rect x="57.1929" y="38.4469" width="453.543" height="307.575" fill="none" stroke="black"/>
<path d="M57.1929,344.46h 7.08661v 1.56229h 21.2598v -0.781144h 7.08661v 0.781144h 7.08661v -0.781144h 7.08661v -3.12457h 7.08661v -1.56229h 7.08661v -1.56229h 7.08661v -3.12457h 7.08661v 6.24915h 7.08661v -10.936h 7.08661v -2.34343h 7.08661v
 -5.46801h 7.08661v -11.7172h 7.08661v -10.1549h 7.08661v 0.781144h 7.08661v -20.3097h 7.08661v -14.8417h 7.08661v -21.872h 7.08661v -4.68686h 7.08661v -36.7138h 7.08661v -14.8417h 7.08661v -21.0909h 7.08661v -10.1549h 7.08661v -10.936h 7.08661v
 -35.1515h 7.08661v -23.4343h 7.08661v -4.68686h 7.08661v -3.90572h 7.08661v -5.46801h 7.08661v 19.5286h 7.08661v -40.6195h 7.08661v 27.34h 7.08661v 15.6229h 7.08661v 46.0875h 7.08661v -12.4983h 7.08661v 18.7474h 7.08661v 28.9023h 7.08661v -0.781144h
 7.08661v 41.4006h 7.08661v 15.6229h 7.08661v 22.6532h 7.08661v -4.68686h 7.08661v 31.2457h 7.08661v -4.68686h 7.08661v 31.2457h 7.08661v -0.781144h 7.08661v 10.1549h 7.08661v 5.46801h 7.08661v 8.59258h 7.08661v 0.781144h 7.08661v 3.12457h 7.08661v
 4.68686h 7.08661v -0.781144h 7.08661v 3.90572h 7.08661v 1.56229h 7.08661v -1.56229h 7.08661v -1.56229h 7.08661v 3.12457h 7.08661v -0.781144h 21.2598" fill="none" stroke="#000099"/>
<rect x="442.705" y="24.9905" width="113.386" height="61.5151" fill="white"/>
<path d="M442.705,86.5056h 113.386" fill="none" stroke="black"/>
<path d="M556.091,86.5056v -61.5151" fill="none" stroke="black"/>
<path d="M556.091,24.9905h -113.386" fill="none" stroke="black"/>
<path d="M442.705,24.9905v 61.5151" fill="none" stroke="black"/>
<text x="495.748" y="38.284" fill="black" font-size="13.4802" font-family="Helvetica">
h
</text>
<path d="M442.705,40.3693h 113.386" fill="none" stroke="black"/>
<text x="447.69" y="52.946" fill="black" font-size="12.4707" font-family="Helvetica">
Entries 
</text>
<text x="520.185" y="52.946" fill="black" font-size="12.4707" font-family="Helvetica">
 7000
</text>
<text x="447.69" y="67.6079" fill="black" font-size="12.4707" font-family="Helvetica">
Mean  
</text>
<text x="503.079" y="67.6079" fill="black" font-size="12.4707" font-family="Helvetica">
 0.01448
</text>
<text x="447.69" y="83.0844" fill="black" font-size="12.4707" font-family="Helvetica">
Std Dev   
</text>
<text x="515.298" y="83.0844" fill="black" font-size="12.4707" font-family="Helvetica">
  1.011
</text>
<path d="M57.1929,346.022h 453.543" fill="none" stroke="black"/>
<text x="502.265" y="373.065" fill="black" font-size="12.8453" font-family="Helvetica">
X
</text>
<path d="M57.1929,336.795v 9.22726" fill="none" stroke="black"/>
<path d="M68.5315,341.409v 4.61363" fill="none" stroke="black"/>
<path d="M79.8701,341.409v 4.61363" fill="none" stroke="black"/>
<path d="M91.2087,341.409v 4.61363" fill="none" stroke="black"/>
<path d="M102.547,341.409v 4.61363" fill="none" stroke="black"/>
<path d="M113.886,336.795v 9.22726" fill="none" stroke="black"/>
<path d="M125.224,341.409v 4.61363" fill="none" stroke="black"/>
<path d="M136.563,341.409v 4.61363" fill="none" stroke="black"/>
<path d="M147.902,341.409v 4.61363" fill="none" stroke="black"/>
<path d="M159.24,341.409v 4.61363" fill="none" stroke="black"/>
<path d="M170.579,336.795v 9.22726" fill="none" stroke="black"/>
<path d="M181.917,341.409v 4.61363" fill="none" stroke="black"/>
<path d="M193.256,341.409v 4.61363" fill="none" stroke="black"/>
<path d="M204.594,341.409v 4.61363" fill="none" stroke="black"/>
<path d="M215.933,341.409v 4.61363" fill="none" stroke="black"/>
<path d="M227.272,336.795v 9.22726" fill="none" stroke="black"/>
<path d="M238.61,341.409v 4.61363" fill="none" stroke="black"/>
<path d="M249.949,341.409v 4.61363" fill="none" stroke="black"/>
<path d="M261.287,341.409v 4.61363" fill="none" stroke="black"/>
<path d="M272.626,341.409v 4.61363" fill="none" stroke="black"/>
<path d="M283.965,336.795v 9.22726" fill="none" stroke="black"/>
<path d="M295.303,341.409v 4.61363" fill="none" stroke="black"/>
<path d="M306.642,341.409v 4.61363" fill="none" stroke="black"/>
<path d="M317.98,341.409v 4.61363" fill="none" stroke="black"/>
<path d="M329.319,341.409v 4.61363" fill="none" stroke="black"/>
<path d="M340.657,336.795v 9.22726" fill="none" stroke="black"/>
<path d="M351.996,341.409v 4.61363" fill="none" stroke="black"/>
<path d="M363.335,341.409v 4.61363" fill="none" stroke="black"/>
<path d="M374.673,341.409v 4.61363" fill="none" stroke="black"/>
<path d="M386.012,341.409v 4.61363" fill="none" stroke="black"/>
<path d="M397.35,336.795v 9.22726" fill="none" stroke="black"/>
<path d="M408.689,341.409v 4.61363" fill="none" stroke="black"/>
<path d="M420.028,341.409v 4.61363" fill="none" stroke="black"/>
<path d="M431.366,341.409v 4.61363" fill="none" stroke="black"/>
<path d="M442.705,341.409v 4.61363" fill="none" stroke="black"/>
<path d="M454.043,336.795v 9.22726" fill="none" stroke="black"/>
<path d="M465.382,341.409v 4.61363" fill="none" stroke="black"/>
<path d="M476.72,341.409v 4.61363" fill="none" stroke="black"/>
<path d="M488.059,341.409v 4.61363" fill="none" stroke="black"/>
<path d="M499.398,341.409v 4.61363" fill="none" stroke="black"/>
<path d="M510.736,336.795v 9.22726" fill="none" stroke="black"/>
<text x="56.7042" y="358.403" fill="black" font-size="12.8453" font-family="Helvetica">
4
</text>
<text x="49.3732" y="358.403" fill="black" font-size="12.8453" font-family="Times">
&#8722;
</text>
<text x="113.723" y="358.403" fill="black" font-size="12.8453" font-family="Helvetica">
3
</text>
<text x="106.392" y="358.403" fill="black" font-size="12.8453" font-family="Times">
&#8722;
</text>
<text x="169.927" y="358.403" fill="black" font-size="12.8453" font-family="Helvetica">
2
</text>
<text x="162.596" y="358.403" fill="black" font-size="12.8453" font-family="Times">
&#8722;
</text>
<text x="227.76" y="358.403" fill="black" font-size="12.8453" font-family="Helvetica">
1
</text>
<text x="220.429" y="358.403" fill="black" font-size="12.8453" font-family="Times">
&#8722;
</text>
<text x="280.706" y="358.403" fill="black" font-size="12.8453" font-family="Helvetica">
0
</text>
<text x="337.725" y="358.403" fill="black" font-size="12.8453" font-family="Helvetica">
1
</text>
<text x="393.929" y="358.403" fill="black" font-size="12.8453" font-family="Helvetica">
2
</text>
<text x="450.133" y="358.403" fill="black" font-size="12.8453" font-family="Helvetica">
3
</text>
<text x="507.152" y="358.403" fill="black" font-size="12.8453" font-family="Helvetica">
4
</text>
<path d="M57.1929,346.022v -307.575" fill="none" stroke="black"/>
<g transform="rotate(-90,30.6385,48.0586)">
<text x="30.6385" y="48.0586" fill="black" font-size="12.8453" font-family="Helvetica">
Y
</text>
</g>
<path d="M70.7992,346.022h -13.6063" fill="none" stroke="black"/>
<path d="M63.9961,338.211h -6.80315" fill="none" stroke="black"/>
<path d="M63.9961,330.399h -6.80315" fill="none" stroke="black"/>
<path d="M63.9961,322.588h -6.80315" fill="none" stroke="black"/>
<path d="M63.9961,314.777h -6.80315" fill="none" stroke="black"/>
<path d="M70.7992,306.965h -13.6063" fill="none" stroke="black"/>
<path d="M63.9961,299.154h -6.80315" fill="none" stroke="black"/>
<path d="M63.9961,291.342h -6.80315" fill="none" stroke="black"/>
<path d="M63.9961,283.531h -6.80315" fill="none" stroke="black"/>
<path d="M63.9961,275.719h -6.80315" fill="none" stroke="black"/>
<path d="M70.7992,267.908h -13.6063" fill="none" stroke="black"/>
<path d="M63.9961,260.096h -6.80315" fill="none" stroke="black"/>
<path d="M63.9961,252.285h -6.80315" fill="none" stroke="black"/>
<path d="M63.9961,244.474h -6.80315" fill="none" stroke="black"/>
<path d="M63.9961,236.662h -6.80315" fill="none" stroke="black"/>
<path d="M70.7992,228.851h -13.6063" fill="none" stroke="black"/>
<path d="M63.9961,221.039h -6.80315" fill="none" stroke="black"/>
<path d="M63.9961,213.228h -6.80315" fill="none" stroke="black"/>
<path d="M63.9961,205.416h -6.80315" fill="none" stroke="black"/>
<path d="M63.9961,197.605h -6.80315" fill="none" stroke="black"/>
<path d="M70.7992,189.794h -13.6063" fill="none" stroke="black"/>
<path d="M63.9961,181.982h -6.80315" fill="none" stroke="black"/>
<path d="M63.9961,174.171h -6.80315" fill="none" stroke="black"/>
<path d="M63.9961,166.359h -6.80315" fill="none" stroke="black"/>
<path d="M63.9961,158.548h -6.80315" fill="none" stroke="black"/>
<path d="M70.7992,150.736h -13.6063" fill="none" stroke="black"/>
<path d="M63.9961,142.925h -6.80315" fill="none" stroke="black"/>
<path d="M63.9961,135.113h -6.80315" fill="none" stroke="black"/>
<path d="M63.9961,127.302h -6.80315" fill="none" stroke="black"/>
<path d="M63.9961,119.491h -6.80315" fill="none" stroke="black"/>
<path d="M70.7992,111.679h -13.6063" fill="none" stroke="black"/>
<path d="M63.9961,103.868h -6.80315" fill="none" stroke="black"/>
<path d="M63.9961,96.0563h -6.80315" fill="none" stroke="black"/>
<path d="M63.9961,88.2448h -6.80315" fill="none" stroke="black"/>
<path d="M63.9961,80.4334h -6.80315" fill="none" stroke="black"/>
<path d="M70.7992,72.622h -13.6063" fill="none" stroke="black"/>
<path d="M70.7992,72.622h -13.6063" fill="none" stroke="black"/>
<path d="M63.9961,64.8105h -6.80315" fill="none" stroke="black"/>
<path d="M63.9961,56.9991h -6.80315" fill="none" stroke="black"/>
<path d="M63.9961,49.1876h -6.80315" fill="none" stroke="black"/>
<path d="M63.9961,41.3762h -6.80315" fill="none" stroke="black"/>
<text x="47.7441" y="350.258" fill="black" font-size="12.8453" font-family="Helvetica">
0
</text>
<text x="40.4131" y="311.159" fill="black" font-size="12.8453" font-family="Helvetica">
50
</text>
<text x="33.8967" y="272.061" fill="black" font-size="12.8453" font-family="Helvetica">
100
</text>
<text x="33.8967" y="232.962" fill="black" font-size="12.8453" font-family="Helvetica">
150
</text>
<text x="33.8967" y="194.678" fill="black" font-size="12.8453" font-family="Helvetica">
200
</text>
<text x="33.8967" y="155.58" fill="black" font-size="12.8453" font-family="Helvetica">
250
</text>
<text x="33.8967" y="116.481" fill="black" font-size="12.8453" font-family="Helvetica">
300
</text>
<text x="33.8967" y="77.3826" fill="black" font-size="12.8453" font-family="Helvetica">
350
</text>
<rect x="442.705" y="24.9905" width="113.386" height="61.5151" fill="white"/>
<path d="M442.705,86.5056h 113.386" fill="none" stroke="black"/>
<path d="M556.091,86.5056v -61.5151" fill="none" stroke="black"/>
<path d="M556.091,24.9905h -113.386" fill="none" stroke="black"/>
<path d="M442.705,24.9905v 61.5151" fill="none" stroke="black"/>
<text x="495.748" y="38.284" fill="black" font-size="13.4802" font-family="Helvetica">
h
</text>
<path d="M442.705,40.3693h 113.386" fill="none" stroke="black"/>
<text x="447.69" y="52.946" fill="black" font-size="12.4707" font-family="Helvetica">
Entries 
</text>
<text x="520.185" y="52.946" fill="black" font-size="12.4707" font-family="Helvetica">
 7000
</text>
<text x="447.69" y="67.6079" fill="black" font-size="12.4707" font-family="Helvetica">
Mean  
</text>
<text x="503.079" y="67.6079" fill="black" font-size="12.4707" font-family="Helvetica">
 0.01448
</text>
<text x="447.69" y="83.0844" fill="black" font-size="12.4707" font-family="Helvetica">
Std Dev   
</text>
<text x="515.298" y="83.0844" fill="black" font-size="12.4707" font-family="Helvetica">
  1.011
</text>
<text x="237.535" y="18.7347" fill="black" font-size="16.9898" font-family="Helvetica">
ROOT Histo
</text></svg>
